<?xml version="1.0" encoding="utf-8"?>
<!-- Generator: Adobe Illustrator 23.1.0, SVG Export Plug-In . SVG Version: 6.00 Build 0)  -->
<svg version="1.1" id="Ebene_1" xmlns="http://www.w3.org/2000/svg" xmlns:xlink="http://www.w3.org/1999/xlink" x="0px" y="0px"
	 viewBox="0 0 960.9 450.8" style="enable-background:new 0 0 960.9 450.8;" xml:space="preserve">
<style type="text/css">
	.st0{fill:#19467D;}
	.st1{fill:#FFFFFF;}
</style>
<g>
	<path class="st0" d="M899.6,0H131.1C89.3,0,48.2,34.1,39.3,76.2L1.7,258.3c-8.9,42.1,17.8,76.2,59.6,76.2h775.8
		c41.8,0,82.9-34.1,91.8-76.2l30.3-182.2C968.1,34.1,941.4,0,899.6,0"/>
	<path class="st1" d="M325.7,267.5h-51.2c-5.8,0-8.8-5-9.4-7.6c-0.5-2.7-4.1-26.2-4.5-28.6c-0.5-2.8-2.8-5.3-5.7-5.4
		c-2.4-0.1-82.2,0-86.4,0.1c-4.1,0.1-6.3,1-8.4,4.2c-2.2,3.3-18,28-20.9,32.1c-2.9,4.1-5.4,5.3-12.3,5.3c-7.3-0.1-33.1,0-42.4,0
		c-5.5,0-9.1-6.2-4.9-12.5c5.2-7.8,125.6-179.1,128.9-184c4.2-6.2,8.4-8.2,15.5-8.2h62.7c5.8,0,10.3,3,11.7,10.4
		c2.7,13.9,33.7,172.5,35.4,181.7C335.6,264.5,329.7,267.5,325.7,267.5"/>
	<path class="st0" d="M242.9,119.2c-1.7-10.4-4.9-8.8-10.6,0c-2.4,3.7-35.7,55.1-38,58.5c-2.8,4.1-1.7,6.3,1.8,6.3
		c2.8,0,48.2,0,52.2,0c3.9,0,4.6-1.3,4.1-4.8C251.8,175.6,243.8,125.2,242.9,119.2"/>
	<path class="st1" d="M623.3,132.5c-1.3,6.5-2.3,7.6-9.4,7.6c-8.4,0-45.8-0.1-54-0.1c-4.2,0-6.8-3.6-5.8-8.4
		c2.4-11.6-7.9-18.3-16.3-22.1c-7-3.2-19.2-5.4-35.2-5.4c-36,0-70.3,30.2-77.1,65.4c-5.5,28.1,13.3,54.7,45.6,55.9
		c25.7,1,36.5-3.3,48.8-10.9c8.4-5.2,15.1-13.3,17.2-19.1c1.3-4,4.9-7.1,8.4-7.2c2.1-0.1,54.9,0,58.1,0c5.5,0,7.5,5.3,6,10
		c-6.9,22.8-26.3,42.3-56.9,57.3c-23,11.3-51.2,18.2-82.4,18.3c-111.8,0.4-120.9-68.5-112.3-108.6C376,80.6,459.3,56.6,510.5,56.6
		c28.3,0,49.8,4.7,63.4,9.8C607.5,79,627.6,110.6,623.3,132.5"/>
	<path class="st1" d="M866.4,71.2c-1,4.8-4.5,23.2-5.7,29.3c-1.1,5.3-5.1,8.3-12.1,8.3H733.8c-3.5,0-4.4,1.4-5,4.2
		c-0.6,2.9-4,20.8-4.5,23c-1,5.2-0.2,6.3,5.1,6.3c4.9,0,94,0,98.5,0c4.5,0,8.4,4,7.7,8.1c-0.7,4.1-3.7,19.5-4.2,22
		c-0.8,4-4.5,7.4-9.5,7.5c-5.8,0-97.3,0-102,0c-3.4,0-4.4,1.3-5,4.2c-0.6,3.3-5.5,28.4-6,31.3c-1,5.3-0.2,6.3,5,6.3h120.8
		c3.8,0,6.8,4.7,6,8.5c-0.8,4.3-4.5,22.9-5.3,27.1c-1.1,5.8-6,10.4-12.5,10.4c-4.5,0-174.4,0-178.3,0c-6,0-11.4-5.6-10.1-12.4
		c1.1-5.8,34.6-178.5,35.3-181.8c1.3-6.2,5.5-10.4,12.5-10.4h175.2C865.2,62.8,867.5,65.7,866.4,71.2"/>
	<path class="st0" d="M76.3,449.5l-3.1-9.7c-0.1-0.1-0.2-0.2-0.3-0.2h-23c-0.2,0-0.3,0.1-0.3,0.2l-3.1,9.7c-0.2,0.4-0.5,0.6-0.9,0.6
		h-4.1c-0.6,0-0.8-0.3-0.6-0.9l17-52.4c0.1-0.4,0.5-0.6,0.9-0.6h5.2c0.5,0,0.8,0.2,0.9,0.6L82,449.2l0.1,0.3c0,0.4-0.2,0.5-0.7,0.5
		h-4.2C76.7,450.1,76.4,449.9,76.3,449.5 M51.1,434.9c0.1,0.1,0.2,0.1,0.3,0.1h19.9c0.1,0,0.2,0,0.3-0.1c0.1-0.1,0.1-0.2,0-0.3
		l-10-31.4c0-0.1-0.1-0.2-0.2-0.2c-0.1,0-0.2,0.1-0.2,0.2l-10,31.4C51,434.8,51,434.9,51.1,434.9"/>
	<path class="st0" d="M110.7,446.8c-3.4-2.6-5-6.1-5-10.5v-2.4c0-0.5,0.3-0.8,0.8-0.8h3.8c0.5,0,0.8,0.3,0.8,0.8v2.1
		c0,3,1.2,5.4,3.7,7.2c2.5,1.8,5.9,2.7,10.2,2.7c4,0,7-0.8,9-2.5c2.1-1.7,3.1-3.9,3.1-6.7c0-1.8-0.5-3.3-1.4-4.6s-2.4-2.5-4.4-3.6
		c-2-1.1-4.8-2.4-8.3-3.9c-3.8-1.5-6.8-2.9-9-4c-2.1-1.2-3.8-2.6-5.1-4.5c-1.3-1.8-2-4.1-2-6.9c0-4.3,1.5-7.6,4.5-10
		c3-2.4,7.1-3.6,12.4-3.6c5.7,0,10.2,1.3,13.5,4c3.3,2.7,4.9,6.2,4.9,10.6v1.7c0,0.5-0.3,0.8-0.8,0.8h-3.8c-0.5,0-0.8-0.3-0.8-0.8
		v-1.4c0-3-1.2-5.4-3.5-7.3c-2.3-1.9-5.6-2.9-9.7-2.9c-3.6,0-6.4,0.8-8.4,2.2c-1.9,1.5-2.9,3.6-2.9,6.5c0,1.9,0.5,3.4,1.4,4.6
		c0.9,1.2,2.3,2.3,4.1,3.1c1.8,0.9,4.5,2.1,8.2,3.5c3.7,1.5,6.8,3,9,4.3c2.3,1.3,4.1,3,5.5,4.9c1.4,1.9,2.1,4.3,2.1,7
		c0,4.3-1.6,7.7-4.8,10.3c-3.2,2.6-7.6,3.8-13.2,3.8C118.7,450.7,114.1,449.4,110.7,446.8"/>
	<path class="st0" d="M190.9,396.9v3.3c0,0.5-0.3,0.8-0.8,0.8h-15.1c-0.2,0-0.3,0.1-0.3,0.3v48c0,0.5-0.3,0.8-0.8,0.8H170
		c-0.5,0-0.8-0.3-0.8-0.8v-48c0-0.2-0.1-0.3-0.3-0.3h-14.5c-0.5,0-0.8-0.2-0.8-0.8v-3.3c0-0.5,0.3-0.8,0.8-0.8h35.6
		C190.7,396.2,190.9,396.4,190.9,396.9"/>
	<path class="st0" d="M232.6,449.5l-3.1-9.7c-0.1-0.1-0.2-0.2-0.3-0.2h-23c-0.2,0-0.3,0.1-0.3,0.2l-3.1,9.7
		c-0.1,0.4-0.5,0.6-0.9,0.6h-4.1c-0.6,0-0.8-0.3-0.6-0.9l17-52.4c0.2-0.4,0.5-0.6,0.9-0.6h5.2c0.5,0,0.8,0.2,0.9,0.6l17.1,52.4
		l0.1,0.3c0,0.4-0.2,0.5-0.7,0.5h-4.2C233.1,450.1,232.8,449.9,232.6,449.5 M207.5,434.9c0.1,0.1,0.2,0.1,0.3,0.1h19.9
		c0.1,0,0.2,0,0.3-0.1c0.1-0.1,0.1-0.2,0-0.3l-10-31.4c-0.1-0.1-0.1-0.2-0.2-0.2c-0.1,0-0.2,0.1-0.2,0.2l-10,31.4
		C207.4,434.8,207.4,434.9,207.5,434.9"/>
	<path class="st0" d="M279.2,422.4c2.8,1.1,4.9,2.8,6.3,5c1.4,2.2,2.1,4.9,2.1,8c0,4.6-1.5,8.2-4.4,10.8c-2.9,2.6-6.8,3.8-11.7,3.8
		H253c-0.5,0-0.8-0.3-0.8-0.8v-52.4c0-0.5,0.3-0.8,0.8-0.8h18.1c5,0,8.9,1.2,11.7,3.7c2.8,2.5,4.3,5.9,4.3,10.4c0,2.8-0.7,5.2-2,7.2
		c-1.4,2-3.3,3.5-5.8,4.5C279,422.1,279,422.3,279.2,422.4 M257.7,401.3v18.5c0,0.2,0.1,0.3,0.3,0.3h13.1c3.2,0,5.8-0.9,7.7-2.5
		c1.9-1.7,2.9-4,2.9-6.8c0-3-1-5.3-2.9-7.1c-1.9-1.8-4.5-2.7-7.7-2.7H258C257.8,400.9,257.7,401,257.7,401.3 M279.3,442.4
		c1.9-1.8,2.9-4.3,2.9-7.5c0-3.1-1-5.6-3-7.5c-2-1.9-4.6-2.8-8-2.8H258c-0.2,0-0.3,0.1-0.3,0.3v19.9c0,0.2,0.1,0.3,0.3,0.3h13.6
		C274.8,445.2,277.4,444.3,279.3,442.4"/>
	<path class="st0" d="M307.4,449.3v-52.4c0-0.5,0.3-0.8,0.8-0.8h3.9c0.5,0,0.8,0.3,0.8,0.8v52.4c0,0.5-0.3,0.8-0.8,0.8h-3.9
		C307.7,450.1,307.4,449.8,307.4,449.3"/>
	<path class="st0" d="M335.1,449.3v-52.4c0-0.5,0.3-0.8,0.8-0.8h3.9c0.5,0,0.8,0.3,0.8,0.8v48c0,0.2,0.1,0.3,0.3,0.3H368
		c0.5,0,0.8,0.3,0.8,0.8v3.2c0,0.5-0.3,0.8-0.8,0.8h-32.2C335.3,450.1,335.1,449.8,335.1,449.3"/>
	<path class="st0" d="M388.3,448.5c-2.8-1.4-4.9-3.4-6.5-6s-2.3-5.6-2.3-9v-36.5c0-0.5,0.3-0.8,0.8-0.8h3.9c0.5,0,0.8,0.3,0.8,0.8
		v36.7c0,3.6,1.2,6.6,3.5,8.9s5.5,3.4,9.3,3.4c3.8,0,6.9-1.1,9.3-3.4c2.4-2.3,3.5-5.2,3.5-8.9v-36.7c0-0.5,0.3-0.8,0.8-0.8h3.9
		c0.5,0,0.8,0.3,0.8,0.8v36.5c0,3.4-0.8,6.5-2.3,9s-3.7,4.6-6.4,6c-2.8,1.4-6,2.2-9.6,2.2C394.3,450.7,391.1,450,388.3,448.5"/>
	<path class="st0" d="M437.3,446.8c-3.4-2.6-5-6.1-5-10.5v-2.4c0-0.5,0.3-0.8,0.8-0.8h3.8c0.5,0,0.8,0.3,0.8,0.8v2.1
		c0,3,1.2,5.4,3.7,7.2c2.5,1.8,5.9,2.7,10.2,2.7c4,0,7-0.8,9-2.5c2.1-1.7,3.1-3.9,3.1-6.7c0-1.8-0.5-3.3-1.4-4.6s-2.4-2.5-4.4-3.6
		c-2-1.1-4.8-2.4-8.3-3.9c-3.8-1.5-6.8-2.9-9-4c-2.1-1.2-3.8-2.6-5.1-4.5c-1.3-1.8-2-4.1-2-6.9c0-4.3,1.5-7.6,4.5-10
		c3-2.4,7.1-3.6,12.4-3.6c5.7,0,10.2,1.3,13.5,4c3.3,2.7,4.9,6.2,4.9,10.6v1.7c0,0.5-0.3,0.8-0.8,0.8H464c-0.5,0-0.8-0.3-0.8-0.8
		v-1.4c0-3-1.2-5.4-3.5-7.3c-2.3-1.9-5.6-2.9-9.7-2.9c-3.6,0-6.4,0.8-8.4,2.2c-2,1.5-2.9,3.6-2.9,6.5c0,1.9,0.5,3.4,1.4,4.6
		c1,1.2,2.3,2.3,4.1,3.1s4.5,2.1,8.2,3.5c3.8,1.5,6.8,3,9,4.3c2.3,1.3,4.1,3,5.5,4.9c1.4,1.9,2.1,4.3,2.1,7c0,4.3-1.6,7.7-4.8,10.3
		c-3.2,2.6-7.6,3.8-13.2,3.8C445.2,450.7,440.6,449.4,437.3,446.8"/>
	<path class="st0" d="M509.7,448.6c-2.7-1.4-4.8-3.4-6.4-6c-1.5-2.6-2.3-5.6-2.3-9v-21.2c0-3.3,0.8-6.3,2.3-8.9
		c1.5-2.6,3.6-4.5,6.4-6c2.7-1.4,5.9-2.1,9.5-2.1c3.6,0,6.8,0.7,9.5,2.1c2.7,1.4,4.8,3.3,6.3,5.9c1.5,2.5,2.3,5.4,2.3,8.7
		c0,0.3-0.1,0.5-0.2,0.6c-0.1,0.2-0.3,0.2-0.5,0.2l-3.9,0.2c-0.5,0-0.8-0.2-0.8-0.7v-0.2c0-3.6-1.1-6.5-3.5-8.7
		c-2.3-2.2-5.4-3.3-9.2-3.3s-6.8,1.1-9.2,3.3c-2.3,2.2-3.5,5.1-3.5,8.7v21.6c0,3.6,1.2,6.5,3.5,8.7c2.3,2.2,5.4,3.3,9.2,3.3
		s6.9-1.1,9.2-3.3c2.3-2.2,3.5-5.1,3.5-8.7v-0.2c0-0.5,0.3-0.7,0.8-0.7l3.9,0.2c0.5,0,0.8,0.2,0.8,0.7c0,3.3-0.7,6.3-2.3,8.8
		c-1.5,2.5-3.6,4.5-6.3,5.9c-2.7,1.4-5.9,2.1-9.5,2.1C515.6,450.8,512.4,450.1,509.7,448.6"/>
	<path class="st0" d="M562.7,448.5c-2.8-1.5-4.9-3.6-6.4-6.3c-1.5-2.7-2.3-5.8-2.3-9.4v-19.4c0-3.5,0.8-6.7,2.3-9.4
		c1.5-2.7,3.7-4.8,6.4-6.3c2.8-1.5,6-2.2,9.6-2.2c3.6,0,6.9,0.7,9.7,2.2c2.8,1.5,5,3.6,6.5,6.3c1.5,2.7,2.3,5.8,2.3,9.4v19.4
		c0,3.5-0.8,6.7-2.3,9.4c-1.5,2.7-3.7,4.8-6.5,6.3s-6,2.2-9.7,2.2C568.6,450.7,565.4,449.9,562.7,448.5 M581.7,442.4
		c2.4-2.3,3.5-5.5,3.5-9.4v-19.7c0-3.9-1.2-7-3.5-9.4c-2.4-2.4-5.5-3.6-9.4-3.6c-3.8,0-7,1.2-9.3,3.6c-2.4,2.4-3.5,5.5-3.5,9.4v19.7
		c0,3.9,1.2,7,3.5,9.4c2.4,2.4,5.5,3.5,9.3,3.5C576.2,446,579.3,444.8,581.7,442.4"/>
	<path class="st0" d="M644.1,396.2h4c0.5,0,0.8,0.3,0.8,0.8v52.4c0,0.5-0.3,0.8-0.8,0.8h-3.9c-0.5,0-0.8-0.3-0.8-0.8v-42.8
		c0-0.1-0.1-0.3-0.2-0.3c-0.1-0.1-0.2,0-0.2,0.1l-12.5,19.2c-0.3,0.4-0.6,0.5-0.9,0.5h-2c-0.4,0-0.7-0.2-0.9-0.5L614,406.6
		c-0.1-0.2-0.1-0.2-0.2-0.2c-0.1,0.1-0.2,0.2-0.2,0.3v42.6c0,0.5-0.2,0.8-0.8,0.8h-3.9c-0.5,0-0.8-0.3-0.8-0.8v-52.4
		c0-0.5,0.3-0.8,0.8-0.8h4c0.4,0,0.7,0.2,0.9,0.5l14.5,21.9c0.1,0,0.1,0.1,0.2,0.1c0.1,0,0.2,0,0.2-0.1l14.3-21.9
		C643.4,396.4,643.7,396.2,644.1,396.2"/>
	<path class="st0" d="M700.8,400.3c2.8,2.8,4.1,6.4,4.1,10.9c0,4.5-1.4,8.1-4.2,10.8c-2.8,2.7-6.5,4.1-11,4.1h-15
		c-0.2,0-0.3,0.1-0.3,0.3v22.9c0,0.5-0.3,0.8-0.8,0.8h-3.9c-0.5,0-0.8-0.3-0.8-0.8v-52.4c0-0.5,0.3-0.8,0.8-0.8h20.2
		C694.4,396.1,698,397.5,700.8,400.3 M696.6,418.7c1.9-1.9,2.8-4.4,2.8-7.4c0-3.1-1-5.6-2.8-7.5c-1.9-1.9-4.4-2.8-7.4-2.8h-14.6
		c-0.2,0-0.3,0.1-0.3,0.3v20c0,0.2,0.1,0.3,0.3,0.3h14.6C692.3,421.5,694.8,420.6,696.6,418.7"/>
	<path class="st0" d="M750.4,449.5l-3.1-9.7c-0.1-0.1-0.2-0.2-0.3-0.2h-23c-0.2,0-0.3,0.1-0.3,0.2l-3.1,9.7
		c-0.1,0.4-0.5,0.6-0.9,0.6h-4.2c-0.6,0-0.8-0.3-0.6-0.9l17-52.4c0.2-0.4,0.5-0.6,0.9-0.6h5.2c0.5,0,0.8,0.2,0.9,0.6l17.1,52.4
		l0.1,0.3c0,0.4-0.2,0.5-0.7,0.5h-4.1C750.9,450.1,750.5,449.9,750.4,449.5 M725.3,434.9c0.1,0.1,0.2,0.1,0.3,0.1h19.9
		c0.1,0,0.2,0,0.3-0.1c0.1-0.1,0.1-0.2,0-0.3l-10-31.4c-0.1-0.1-0.1-0.2-0.2-0.2c-0.1,0-0.2,0.1-0.2,0.2l-10,31.4
		C725.2,434.8,725.2,434.9,725.3,434.9"/>
	<path class="st0" d="M803.6,396.2h3.9c0.5,0,0.8,0.3,0.8,0.8v52.4c0,0.5-0.3,0.8-0.8,0.8h-3.8c-0.4,0-0.7-0.2-0.9-0.5l-26.3-42.7
		c0-0.1-0.1-0.2-0.2-0.2c-0.1,0-0.2,0.1-0.2,0.3l0.1,42.4c0,0.5-0.3,0.8-0.8,0.8h-3.9c-0.5,0-0.8-0.3-0.8-0.8v-52.4
		c0-0.5,0.3-0.8,0.8-0.8h3.9c0.4,0,0.7,0.2,0.9,0.5l26.2,42.7c0,0.2,0.1,0.2,0.2,0.2c0.1,0,0.2-0.1,0.2-0.3l-0.1-42.4
		C802.8,396.4,803.1,396.2,803.6,396.2"/>
	<path class="st0" d="M839.2,449.2v-22.8c0-0.2,0-0.3-0.1-0.4l-16-29c-0.1-0.2-0.2-0.4-0.2-0.5c0-0.3,0.2-0.5,0.7-0.5h4.2
		c0.5,0,0.8,0.2,0.9,0.5l12.9,23.5c0.1,0.1,0.1,0.1,0.2,0.1s0.2,0,0.2-0.1l13-23.5c0.2-0.4,0.5-0.5,0.9-0.5h4.2
		c0.3,0,0.5,0.1,0.6,0.3c0.1,0.2,0.1,0.4-0.1,0.7l-16,29c0,0-0.1,0.2-0.1,0.4v22.8c0,0.5-0.3,0.8-0.8,0.8H840
		C839.5,450,839.2,449.7,839.2,449.2"/>
</g>
</svg>
