<svg version="1.1" id="Livello_1" xmlns="http://www.w3.org/2000/svg" xmlns:xlink="http://www.w3.org/1999/xlink" x="0px" y="0px" viewBox="0 0 225.3 64.7" enable-background="new 0 0 225.3 64.7" xml:space="preserve">
<rect x="89.8" y="6.3" width="6.2" height="43.9"/>
<path d="M127.6,19.5h-6.1c-0.4-4.1-3-7.5-8.6-7.5c-5.6,0-7.9,3.8-8.2,7.5v14.8c-0.1,4.7,0.2,10.1,8.2,10.1c7.9,0,8.7-5.1,8.7-10.1
	h-7.1l0-6.2h13.1v9.6c0,7.5-6.4,12.5-14.8,12.5c-8.4,0-14.4-5.4-14.4-12.8l0-17.9c0-5.7,3.6-13.2,14.5-13.2
	C123.8,6.3,127.6,13.7,127.6,19.5"/>
<polygon points="136.5,50.2 136.5,20.5 156.1,50.2 160.6,50.2 160.6,6.3 154.4,6.3 154.4,36.3 134.4,6.3 130.1,6.3 130.1,50.2 "/>
<polygon points="163.1,50.2 193.7,50.2 193.7,44.4 169.4,44.4 169.4,31.3 180.3,31.3 180.3,25 169.4,25 169.4,12.4 193.7,12.4 
	193.7,6.3 163.1,6.3 "/>
<path d="M217.2,23.2C215.5,25,213,25,213,25h-10.5V12.4h10.2c0,0,2.4-0.2,4.2,1.5c2,1.8,2.1,4.1,2.1,4.1v0.9
	C219.1,18.8,219.3,21,217.2,23.2 M213.2,6.3H196v43.9h6.5V31.3h10.9c6.6,0,11.8-7,11.9-12.2C225.3,13.8,220.4,6.3,213.2,6.3"/>
<path d="M65.2,31.3L70,16.5l4.8,14.8H65.2z M73.4,6.3h-7L52.5,50.2h6.7l4.3-12.8h13.1l4.1,12.8h6.8L73.4,6.3z"/>
<path fill="#EC2122" d="M0.3,26.6l7.3,38.1l6.8-14l-5-26.3c0,0-1.9-10.2,8.6-12.7c0,0,6.1-1.3,9.7,2.5c0.2,0.2,1.1,1.2,1.1,1.2
	s0.2,0.1-0.1-0.6c-0.4-0.8-0.9-1.6-1.5-2.5c-0.4-0.6-0.9-1.2-1.4-1.8c-3.5-4.1-9-4.6-9-4.6S9,5.1,4.2,11.1
	C-1.7,18.5,0.3,26.6,0.3,26.6"/>
<path fill="#EC2122" d="M22.4,22.4c5.4-1.2,10.8,2.3,11.9,7.7c1.2,5.4-2.3,10.8-7.7,11.9c-5.4,1.2-10.8-2.3-11.9-7.7
	C13.5,28.9,16.9,23.5,22.4,22.4"/>
<path fill="#EC2122" d="M41.2,0l-6.7,14l5,26.3c0,0,1.9,10.2-8.5,12.7c0,0-6,1.3-9.7-2.5c-0.2-0.2-1.1-1.2-1.1-1.2S20,49,20.3,49.7
	c0.4,0.8,0.9,1.6,1.5,2.5c0.4,0.6,0.9,1.2,1.4,1.8c3.5,4.1,8.9,4.6,8.9,4.6s7.8,0.9,12.6-5c5.9-7.5,3.9-15.5,3.9-15.5"/>
</svg>