<svg xmlns="http://www.w3.org/2000/svg" width="150" height="23" class="uk-svg uk-preserve" viewBox="81.7 212.6 678.402 102.3">
                            <title>Logo Bonfiglioli</title>
                            <g fill="currentColor">
                                <path d="M165.1 245c-1.4 1.3-2.9 2.8-4.5 4.3-2.7 2.7-5 5.1-6.9 7.3.6 2.2.9 4.6.9 7 0 2.4-.3 4.8-.9 7.1-2 8-7.3 14.7-14.5 18.6-4.1 2.2-8.7 3.4-13.7 3.4-16 0-29-13-29-29s13-29 29-29c5 0 9.7 1.3 13.8 3.5 1.6-1.7 3.2-3.4 5-5.1 2-2 3.9-3.8 5.7-5.6-7-4.7-15.4-7.5-24.5-7.5-24.2 0-43.8 19.6-43.8 43.8 0 24.2 19.6 43.8 43.8 43.8 24.2 0 43.8-19.6 43.8-43.8 0-6.8-1.5-13.1-4.2-18.8" class="st0"></path>
                                <path d="M174.9 212.6s-12.2 8.2-27.5 23.6c-15.4 15.4-23.6 27.5-23.6 27.5s5.6 8.3 16.1 19.9c4-2.9 7.1-7 8.8-11.8-4.2-4.9-6.5-8.1-6.5-8.1s5.5-7.6 15.3-17.5c9.9-9.9 17.5-15.3 17.5-15.3s3.4 2.5 8.6 7c2.6-4.1 5.8-7.7 9.4-10.9-10.6-9.4-18.1-14.4-18.1-14.4" class="st0"></path>
                                <path d="M268.1 263.7c0 24.2-19.6 43.8-43.8 43.8-9.1 0-17.5-2.8-24.4-7.5 1.9-1.7 3.8-3.6 5.8-5.6 1.8-1.7 3.4-3.4 5-5.1 4.1 2.2 8.8 3.5 13.7 3.5 16 0 29-13 29-29v-29h-29c-16 0-29 13-29 29 0 2.4.3 4.8.9 7-2 2.2-4.3 4.7-6.9 7.3-1.6 1.6-3.1 3-4.5 4.4-2.7-5.7-4.2-12-4.2-18.7 0-24.2 19.6-43.8 43.8-43.8h43.8v43.7z" class="st0"></path>
                                <path d="M209.9 243.8c-4 2.9-7.1 7-8.8 11.7 4.3 4.9 6.6 8.2 6.6 8.2s-5.5 7.6-15.3 17.5c-9.9 9.9-17.5 15.3-17.5 15.3s-3.5-2.5-8.7-7c-2.6 4.1-5.8 7.7-9.4 10.9 10.6 9.5 18.1 14.5 18.1 14.5s12.2-8.2 27.5-23.6c15.4-15.4 23.6-27.5 23.6-27.5s-5.5-8.5-16.1-20M420.7 243.3s14.5-4.9 26.4-4.9c15.5 0 23.5 7.2 23.5 22.9v28c0 3.6-15.9 3.6-15.9 3.6v-32.1c0-6.9-2.8-11.1-8.8-11.1-4.6 0-9.4 1.3-9.4 1.3v38.4c0 3.6-15.9 3.6-15.9 3.6v-49.7zM621.8 289.3c0 3.6-15.9 3.6-15.9 3.6v-69.3c0-3.8 15.9-3.6 15.9-3.6v69.3zM632.2 292.9v-46.5c0-3.6 15.9-3.6 15.9-3.6v46.5c0 3.6-15.9 3.6-15.9 3.6m7.9-72.9c5.4 0 8.8 3.6 8.7 8.4.1 4.6-3.4 8.3-8.6 8.3-5.5 0-8.9-3.7-8.9-8.3.1-4.8 3.5-8.4 8.8-8.4M732.9 289.3c0 3.6-15.9 3.6-15.9 3.6v-69.3c0-3.7 15.9-3.6 15.9-3.6v69.3zM743.5 292.9v-46.5c0-3.5 15.9-3.6 15.9-3.6v46.5c0 3.6-15.9 3.6-15.9 3.6m7.9-72.9c5.3 0 8.8 3.6 8.7 8.4.1 4.6-3.4 8.3-8.6 8.3-5.5 0-9-3.7-9-8.3.2-4.8 3.6-8.4 8.9-8.4M519.1 292.9v-46.5c0-3.5 15.9-3.6 15.9-3.6v46.5c0 3.6-15.9 3.6-15.9 3.6M527 220c5.3 0 8.8 3.6 8.7 8.4.1 4.6-3.4 8.3-8.6 8.3-5.5 0-9-3.7-9-8.3.2-4.8 3.6-8.4 8.9-8.4M579.9 271.1c.1-.1-.1 3.2-.5 4.4-1.1 3.9-5.2 5.7-9.5 5.7-7 0-10.2-6.6-10.2-14.6v-1.9c0-6.9 3.1-13.9 9.8-15.2 6.5-1.2 10.4.3 10.4.3v21.3zm-12.1-32.5c-15.9 1.1-23.9 13.3-23.9 26.8v.7c0 15.4 8.6 26 21.8 26.7 6.6.4 12.4-2.4 14.3-5.2v4.4c0 6.9-3.5 11-9.4 11.8-7 1-13.2.4-13.2.4l-2.5 10.1s7.3 1.1 16.9.2c17.6-1.7 24-12.2 24-23.6v-49.4c0-.1-14.5-3.8-28-2.9M385.9 282.7c-8 0-11.3-8.6-11.3-16.5s3.3-16.5 11.3-16.5 11.3 8.6 11.3 16.5-3.3 16.5-11.3 16.5m0-44.4c-17.1 0-27.1 10.7-27.1 27.9s10 27.9 27.1 27.9 27.1-10.7 27.1-27.9c.1-17.2-9.9-27.9-27.1-27.9M682.7 282.7c-8 0-11.3-8.6-11.3-16.5s3.3-16.5 11.3-16.5 11.3 8.6 11.3 16.5-3.3 16.5-11.3 16.5m0-44.4c-17.1 0-27.1 10.7-27.1 27.9s10 27.9 27.1 27.9 27.1-10.7 27.1-27.9-10-27.9-27.1-27.9M496.2 241.9c0-7.3 3.6-10.5 9.5-11.3 4.6-.7 7.5-.5 7.5-.5l1.1-10.1s-3.3-.4-10.6.4c-15.7 1.7-23.5 8.6-23.5 23.6v49s16 0 16-3.6v-32.8h14.2v-10.8h-14.3v-3.9zM311.9 280.4c2.3.9 6 1.4 8.9 1.4 7.5 0 13.8-3.4 13.8-11.1 0-7.4-6.7-10.4-14.9-10.4h-7.8v20.1zm0-31.9h7.5c8.7 0 13-3.1 13-8.5 0-5.6-3.9-8.7-11.4-8.7-3.6 0-7 .4-9.2 1.2v16zM296 223.9c5-1.7 12.9-3.1 20.4-3.7 12.3-1 18.4.9 23.5 4.2 4.9 3.1 8.5 7.4 8.5 14s-2.7 11.6-11 14.7v.2c8.4 2.3 14.6 8.6 14.6 18.1 0 6.7-2.7 11.9-7.3 15.6-5.4 4.3-13.5 7.1-26 7.1-9.5 0-22.7-3.4-22.7-3.4v-66.8z" class="st0"></path>
                            </g>
                        </svg>