<svg xmlns="http://www.w3.org/2000/svg" fill="none" viewBox="0 0.38 197.07 39.63">
    <path fill-rule="evenodd" clip-rule="evenodd" d="M190.553 13.496h6.52V8.604h-18.459v4.893h6.519v17.295h5.42V13.495Zm-24.464 12.402v-3.81h8.204v-4.782h-8.204v-3.81h9.009V8.604h-14.392v22.188h14.649v-4.893h-9.266Zm-26.296-12.402h9.816l-9.78 12.402v4.893h16.409v-4.893h-10.182l9.999-12.402V8.604h-16.262v4.893Zm-22.706 9.338c0 6.314 4.396 8.33 9.376 8.33 2.783 0 7.031-.56 8.9-1.158V8.604h-5.458v17.63c-.988.15-1.94.3-3.442.3-2.455 0-3.919-1.27-3.919-4.93v-13h-5.457v14.231Zm-9.888-3.137c0 3.884-2.38 6.463-5.713 6.463-3.296 0-5.714-2.579-5.714-6.463s2.418-6.461 5.714-6.461c3.333 0 5.713 2.576 5.713 6.46Zm-17.03 0c0 6.762 5.017 11.468 11.317 11.468 6.298 0 11.354-4.706 11.354-11.468 0-6.76-5.056-11.468-11.354-11.468-6.3 0-11.317 4.708-11.317 11.468Zm-14.576-6.573a16.941 16.941 0 0 1 1.501-.075c2.051 0 3.736.785 3.736 3.026 0 2.277-1.611 3.062-3.882 3.062h-1.355v-6.014Zm0 10.57h1.575l4.687 7.097h6.41l-5.823-8.293c2.16-1.157 3.918-3.399 3.918-6.574 0-5.303-3.735-7.695-9.302-7.695-2.27 0-5.164.187-6.885.486V30.79h5.42v-7.095ZM64.973 9.65c-1.758-1.046-3.7-1.42-5.933-1.42-6.74 0-11.207 4.708-11.207 11.468 0 6.724 4.358 11.468 11.207 11.468 2.233 0 4.248-.337 6.372-1.643v-5.678c-1.904 1.531-3.516 2.316-6.116 2.316-3.516 0-5.86-2.541-5.86-6.463 0-3.772 2.05-6.461 5.64-6.461 2.527 0 4.541.97 5.896 2.352V9.65Z" fill="#1E4691"></path>
    <path fill-rule="evenodd" clip-rule="evenodd" d="M20.133 21.749H0C.56 31.919 9.313 40 20.028 40c10.115 0 18.478-7.2 19.856-16.561H35.6c-1.19 2.862-4.093 4.887-7.496 4.887-4.038 0-7.374-2.854-7.97-6.577Zm-1.517 1.858c1.33 3.891 5.09 6.576 9.487 6.576 3.66 0 6.95-1.881 8.708-4.887h.705c-2.116 7.456-9.274 12.846-17.488 12.846-8.948 0-16.44-6.243-17.877-14.535h16.465Z" fill="#1E4691"></path>
    <path fill-rule="evenodd" clip-rule="evenodd" d="M20.028.375C9.312.375.56 8.455 0 18.626h20.085c.457-3.87 3.87-6.879 8.019-6.879 3.518 0 6.504 2.17 7.61 5.19h4.17C38.506 7.575 30.143.374 20.028.374Zm0 1.858c8.214 0 15.372 5.39 17.489 12.845h-.54c-1.702-3.15-5.112-5.188-8.873-5.188-4.498 0-8.356 2.86-9.592 6.878H2.151C3.588 8.476 11.079 2.233 20.028 2.233Z" fill="#1E4691"></path>
</svg>