<?xml version="1.0" encoding="utf-8"?>
<!-- Generator: Adobe Illustrator 24.1.0, SVG Export Plug-In . SVG Version: 6.00 Build 0)  -->
<svg version="1.1" id="DVC_Logo_CMYK" xmlns="http://www.w3.org/2000/svg" xmlns:xlink="http://www.w3.org/1999/xlink" x="0px"
	 y="0px" viewBox="0 0 289.7 169.7" style="enable-background:new 0 0 289.7 169.7;" xml:space="preserve">
<style type="text/css">
	.st0{fill-rule:evenodd;clip-rule:evenodd;fill:#D9CFC0;}
	.st1{fill:#D9CFC0;}
	.st2{fill-rule:evenodd;clip-rule:evenodd;fill:#003767;}
	.st3{fill-rule:evenodd;clip-rule:evenodd;fill:#FFFFFF;stroke:#003767;stroke-width:1.2821;stroke-miterlimit:10;}
	.st4{fill-rule:evenodd;clip-rule:evenodd;fill:#FFFFFF;stroke:#003767;stroke-width:1.296;stroke-miterlimit:10;}
	.st5{fill-rule:evenodd;clip-rule:evenodd;fill:#FFFFFF;stroke:#003767;stroke-miterlimit:10;}
	.st6{fill-rule:evenodd;clip-rule:evenodd;fill:#FFFFFF;stroke:#003767;stroke-width:1.2762;stroke-miterlimit:10;}
	.st7{fill:#FFFFFF;}
</style>
<g>
	<g>
		<polygon class="st0" points="1.3,95.1 1.3,34.7 145.4,1.3 288.4,35.7 288.4,96.1 145.3,131 		"/>
		<path class="st1" d="M145.4,2.7l141.7,34.1v58.3l-141.8,34.6L2.6,94.1V35.8L145.4,2.7 M145.4,0l-0.6,0.1L2,33.2l-2,0.5v2.1v58.3v2
			l2,0.5l142.7,35.5l0.6,0.2l0.6-0.2l141.8-34.6l2-0.5v-2V36.8v-2l-2-0.5L146,0.1L145.4,0L145.4,0z"/>
	</g>
	<polygon class="st2" points="277,65 287.1,65 287.1,95.2 144.9,129.7 1.7,94.2 1.7,65.1 144.5,65.1 117.9,19.8 143.5,14.9 
		277,42.3 	"/>
	<polygon class="st0" points="170,107.7 142.8,113.1 12.1,86.2 12.1,41 117.5,19.8 	"/>
	<polygon class="st3" points="86.8,91.6 109.8,94.9 109.8,33.5 86.8,36.8 	"/>
	<polygon class="st4" points="112,95 135.7,98.3 143.7,80.8 151.5,98.4 175.2,95.1 158,62.3 173.9,32.8 150.3,29.6 143.7,45.1 
		137.3,29.5 113.6,33 129.3,62.3 	"/>
	<polygon class="st5" points="269.1,46.3 269.1,81.8 251.1,84.4 243.2,62.3 243.7,85.4 225.6,87.9 225.6,40.1 252.2,43.9 260.7,69 
		260.5,45.1 	"/>
	<path class="st5" d="M196.3,41.5c-6.5,0-6.5,12.9-6.5,21.6c0,9.9-0.4,23,6.2,23c6.8,0,6.1-11.4,6.4-22.5
		C202.4,54.2,202.9,41.5,196.3,41.5z M181,33.8c0,0-4.8,1.8-8.1,7.9c-3.5,6.4-4,14.1-4,25.9c0,8.3,1.2,14.4,3.6,19.1
		c2.9,5.6,8,7.6,8,7.6l36.5-5.2c0,0,3.5-3.5,5-11.1c1.1-5.5,1.2-10,1.3-13.9c0.2-7.9-0.8-14.6-1.3-17.2c-0.9-4.3-3.5-8-3.5-8
		L181,33.8z"/>
	<path class="st6" d="M42.5,46v36h4.8c0,0,2.5-0.3,4.2-1.9c2.9-2.7,2.9-12.5,2.7-17.1c-0.1-4.6,0.2-13.9-3.1-15.7
		c-2-1.1-4.9-1.2-4.9-1.2H42.5z M19.1,46l51-7.5c0,0,5-1.2,8.9,4.2c3.9,5.3,4.2,16.7,4.1,20.6c-0.1,11.6-0.6,14.9-2.3,19.3
		c-2.4,6.1-5.4,6.9-5.4,6.9l-56.3-8.1V46z"/>
	<path class="st7" d="M145.4,2.7l141.7,34.1v58.3l-141.8,34.6L2.6,94.1V35.8L145.4,2.7 M145.4,0l-0.6,0.1L2,33.2l-2,0.5v2.1v58.3v2
		l2,0.5l142.7,35.5l0.6,0.2l0.6-0.2l141.8-34.6l2-0.5v-2V36.8v-2l-2-0.5L146,0.1L145.4,0L145.4,0z"/>
	<polygon class="st7" points="30.3,148.1 43.8,148.1 43.4,150 37.8,150 34.7,164.6 32.4,164.6 35.5,150 29.9,150 	"/>
	<path class="st7" d="M52.2,164.6h-2l1.7-7.9c0.3-1.6,0.1-2.7-1.8-2.7c-1.7,0-3.6,1-4.2,4l-1.4,6.6h-2l3.5-16.6h2l-1.3,6.1h0
		c0.7-0.8,2-2,4-2c1.9,0,4.1,0.8,3.3,4.2L52.2,164.6z"/>
	<path class="st7" d="M64.4,160.9c-0.3,0.9-1.7,2.4-3.6,2.4c-2.3,0-3.2-1.5-2.7-4h8.8c0.9-4.3-0.2-7-3.7-7c-4,0-6.4,3-7.2,6.7
		c-0.7,3.5,0.7,6.1,4.1,6.1c1.9,0,2.8-0.5,3.5-0.8c1.7-1,2.7-2.7,2.8-3.3H64.4z M58.5,157.6c0.4-1.9,2.2-3.6,4.1-3.6
		c2.5,0,2.9,1.7,2.6,3.6H58.5z"/>
	<path class="st7" d="M79.4,157.5h5.4c2.7,0,2.6,1.6,2.3,3c-0.1,0.6-0.6,3.1-0.5,4.2h2.7l0.1-0.4c-0.6-0.4-0.7-0.7-0.5-1.7l0.5-3
		c0.4-2.3-0.5-2.7-1.3-3.1c1.2-0.6,2.6-1.5,3.2-4c0.7-3.5-1.8-4.5-4.5-4.5h-7.7l-3.5,16.6h2.2L79.4,157.5z M81,150h5.6
		c1.1,0,2.9,0.2,2.4,2.8c-0.5,2.4-2.3,2.9-4,2.9h-5.2L81,150z"/>
	<path class="st7" d="M95.1,150.4l0.5-2.3h2l-0.5,2.3H95.1z M94.1,164.6h-2l2.6-12.1h2L94.1,164.6z"/>
	<path class="st7" d="M109.9,152.6H108l-0.4,1.7h0c-0.3-0.7-1-2.1-3.2-2.1c-3.2,0-5.6,2.6-6.3,6c-0.6,2.9-0.2,6.7,3.9,6.7
		c1.6,0,2.8-0.8,3.6-1.6l0-0.1h0l-0.1,0.5c-0.3,1.4-0.8,4.2-4.3,4.2c-0.5,0-2.4,0-2.3-1.9h-2c-0.3,3.2,2.4,3.6,3.9,3.6
		c5.6,0,6.5-4.3,6.9-6.1L109.9,152.6z M100.2,158.6c0.3-1.5,1.1-4.5,4.3-4.5c2.9,0,2.6,3.2,2.2,5.1c-0.7,3.2-2.9,4.1-4.2,4.1
		C100.2,163.2,99.6,161.2,100.2,158.6"/>
	<path class="st7" d="M120.3,164.6h-2l1.7-7.9c0.3-1.6,0.1-2.7-1.8-2.7c-1.7,0-3.6,1-4.2,4l-1.4,6.6h-2l3.5-16.6h2l-1.3,6.1h0
		c0.7-0.8,2-2,3.9-2c1.9,0,4.1,0.8,3.3,4.2L120.3,164.6z"/>
	<path class="st7" d="M128.2,154.2l-1.7,7.9c-0.2,0.9,0.6,0.9,1,0.9h0.7l-0.3,1.6c-0.8,0.1-1.3,0.2-1.6,0.2c-2,0-2.2-1.1-1.9-2.6
		l1.7-8h-1.6l0.4-1.7h1.6l0.7-3.4h2l-0.7,3.4h1.9l-0.4,1.7H128.2z"/>
	<path class="st7" d="M151.2,153c0-2.9-2.3-3.4-3.9-3.4c-3,0-5.9,2.2-6.8,6.6c-0.8,3.9-0.1,6.9,4,6.9c1.5,0,4.1-0.7,5.7-4.5h2.2
		c-2.3,6.3-7.4,6.5-8.6,6.5c-3.8,0-6.9-2.4-5.6-8.8c1.1-5.1,4.7-8.6,9.6-8.6c4.3,0,5.9,2.7,5.7,5.4H151.2z"/>
	<path class="st7" d="M154.3,158.6c-0.7,3.1,0.4,6.4,4.3,6.4c3.9,0,6.3-3.3,7-6.4c0.7-3.1-0.4-6.4-4.3-6.4S155,155.5,154.3,158.6
		 M156.4,158.6c0.3-1.6,1.6-4.6,4.5-4.6c2.9,0,2.9,3,2.5,4.6c-0.3,1.6-1.6,4.6-4.5,4.6C156,163.2,156,160.2,156.4,158.6"/>
	<path class="st7" d="M176.6,164.6h-2l1.6-7.4c0.4-2.1,0.1-3.2-1.9-3.2c-1.2,0-3.3,0.7-4,4l-1.4,6.6h-2l2.6-12.1h1.9l-0.4,1.7h0
		c0.6-0.6,2-2.1,4.1-2.1c1.9,0,4.1,0.8,3.3,4.2L176.6,164.6z"/>
	<path class="st7" d="M189.7,164.6h-2l1.6-7.4c0.4-2.1,0.1-3.2-1.9-3.2c-1.2,0-3.3,0.7-4,4l-1.4,6.6h-2l2.6-12.1h1.9l-0.4,1.7h0
		c0.6-0.6,2-2.1,4.1-2.1c1.9,0,4.1,0.8,3.3,4.2L189.7,164.6z"/>
	<path class="st7" d="M201.9,160.9c-0.3,0.9-1.7,2.4-3.6,2.4c-2.3,0-3.2-1.5-2.7-4h8.8c0.9-4.3-0.2-7-3.7-7c-4,0-6.4,3-7.2,6.7
		c-0.7,3.5,0.7,6.1,4.1,6.1c1.9,0,2.8-0.5,3.5-0.8c1.7-1,2.7-2.7,2.8-3.3H201.9z M196,157.6c0.4-1.9,2.2-3.6,4.1-3.6
		c2.5,0,2.9,1.7,2.6,3.6H196z"/>
	<path class="st7" d="M215.2,156.6c0.1-1.6-0.6-2.6-2.3-2.6c-2.5,0-3.8,2.4-4.3,4.5c-0.4,2.1-0.5,4.6,2.3,4.6c1.4,0,2.8-1,3.5-2.9h2
		c-0.6,1.9-2.4,4.6-5.9,4.6c-3.4,0-4.9-2.6-4.1-6.1c0.8-3.7,3.2-6.7,7.2-6.7c3.2,0,3.9,2.3,3.6,4.4H215.2z"/>
	<path class="st7" d="M222.4,154.2l-1.7,7.9c-0.2,0.9,0.6,0.9,1,0.9h0.7l-0.3,1.6c-0.8,0.1-1.4,0.2-1.6,0.2c-2,0-2.2-1.1-1.9-2.6
		l1.7-8h-1.6l0.4-1.7h1.6l0.7-3.4h2l-0.7,3.4h1.9l-0.4,1.7H222.4z"/>
	<path class="st7" d="M227.5,150.4l0.5-2.3h2l-0.5,2.3H227.5z M226.5,164.6h-2l2.6-12.1h2L226.5,164.6z"/>
	<path class="st7" d="M230.3,158.6c-0.7,3.1,0.4,6.4,4.3,6.4c3.9,0,6.3-3.3,7-6.4c0.7-3.1-0.4-6.4-4.3-6.4
		C233.5,152.2,231,155.5,230.3,158.6 M232.4,158.6c0.3-1.6,1.6-4.6,4.5-4.6c2.9,0,2.9,3,2.5,4.6c-0.3,1.6-1.6,4.6-4.5,4.6
		C232.1,163.2,232.1,160.2,232.4,158.6"/>
	<path class="st7" d="M252.7,164.6h-2l1.6-7.4c0.4-2.1,0.1-3.2-1.9-3.2c-1.2,0-3.3,0.7-4,4l-1.4,6.6h-2l2.6-12.1h1.9l-0.4,1.7h0
		c0.6-0.6,2-2.1,4.1-2.1c1.9,0,4.1,0.8,3.3,4.2L252.7,164.6z"/>
	<path class="st7" d="M259.6,151h0.8c0.4,0,0.7-0.1,0.8-0.2c0.1-0.1,0.2-0.3,0.2-0.5c0-0.1,0-0.2-0.1-0.3c-0.1-0.1-0.2-0.2-0.3-0.2
		c-0.1-0.1-0.4-0.1-0.7-0.1h-0.8V151z M258.9,153.4v-4.3h1.5c0.5,0,0.9,0,1.1,0.1c0.2,0.1,0.4,0.2,0.5,0.4c0.1,0.2,0.2,0.4,0.2,0.6
		c0,0.3-0.1,0.6-0.3,0.8c-0.2,0.2-0.5,0.4-0.9,0.4c0.2,0.1,0.3,0.1,0.4,0.2c0.2,0.2,0.4,0.5,0.6,0.9l0.5,0.8h-0.8l-0.4-0.7
		c-0.3-0.5-0.5-0.9-0.7-1c-0.1-0.1-0.3-0.1-0.6-0.1h-0.4v1.8H258.9z M260.7,147.9c-0.6,0-1.1,0.1-1.6,0.4c-0.5,0.3-0.9,0.7-1.2,1.2
		c-0.3,0.5-0.5,1.1-0.5,1.7c0,0.6,0.1,1.1,0.4,1.7c0.3,0.5,0.7,0.9,1.2,1.2c0.5,0.3,1.1,0.4,1.7,0.4s1.1-0.1,1.7-0.4
		c0.5-0.3,0.9-0.7,1.2-1.2c0.3-0.5,0.4-1.1,0.4-1.7c0-0.6-0.1-1.1-0.4-1.7c-0.3-0.5-0.7-0.9-1.2-1.2
		C261.8,148,261.3,147.9,260.7,147.9 M260.7,147.2c0.7,0,1.3,0.2,2,0.5c0.6,0.3,1.1,0.8,1.5,1.5c0.4,0.6,0.5,1.3,0.5,2
		c0,0.7-0.2,1.4-0.5,2c-0.4,0.6-0.8,1.1-1.5,1.5c-0.6,0.4-1.3,0.5-2,0.5s-1.4-0.2-2-0.5c-0.6-0.4-1.1-0.8-1.5-1.5
		c-0.4-0.6-0.5-1.3-0.5-2c0-0.7,0.2-1.4,0.5-2c0.4-0.6,0.9-1.1,1.5-1.5C259.4,147.4,260,147.2,260.7,147.2"/>
</g>
</svg>
