<?xml version="1.0" encoding="utf-8"?>
<!-- Generator: Adobe Illustrator 22.1.0, SVG Export Plug-In . SVG Version: 6.00 Build 0)  -->
<!DOCTYPE svg PUBLIC "-//W3C//DTD SVG 1.1//EN" "http://www.w3.org/Graphics/SVG/1.1/DTD/svg11.dtd">
<svg version="1.1" id="Layer_1" xmlns="http://www.w3.org/2000/svg" xmlns:xlink="http://www.w3.org/1999/xlink" x="0px" y="0px"
	 width="90px" height="91px" viewBox="0 0 90 91" style="enable-background:new 0 0 90 91;" xml:space="preserve">
<metadata><?xpacket begin="﻿" id="W5M0MpCehiHzreSzNTczkc9d"?>
<x:xmpmeta xmlns:x="adobe:ns:meta/" x:xmptk="Adobe XMP Core 5.6-c143 79.161356, 2017/09/07-01:11:22        ">
   <rdf:RDF xmlns:rdf="http://www.w3.org/1999/02/22-rdf-syntax-ns#">
      <rdf:Description rdf:about=""/>
   </rdf:RDF>
</x:xmpmeta>
                                                                                                    
                                                                                                    
                                                                                                    
                                                                                                    
                                                                                                    
                                                                                                    
                                                                                                    
                                                                                                    
                                                                                                    
                                                                                                    
                                                                                                    
                                                                                                    
                                                                                                    
                                                                                                    
                                                                                                    
                                                                                                    
                                                                                                    
                                                                                                    
                                                                                                    
                                                                                                    
                           
<?xpacket end="w"?></metadata>
<style type="text/css">
	.st0{fill:#FFFFFF;}
</style>
<g>
	<g>
		<path class="st0" d="M31.6,52.5l2.5-3c1.3,1.3,2.7,1.8,3.7,1.8c1,0,1.4-0.5,1.4-1.1c0-0.6-0.3-1-2.1-1.6c-2.5-0.8-4.9-2-4.9-5.4
			c0-2.8,2.3-4.9,5.4-4.9c2.2,0,4.2,0.8,5.8,2.2l-2.4,3.1c-1.4-1.1-2.3-1.5-3.1-1.5c-0.8,0-1.1,0.4-1.1,1c0,0.5,0.3,1,2,1.6
			c2.9,1.1,5,1.8,5,4.9c0,4.1-3.4,5.4-6.1,5.4C35.5,55.1,33.3,54.3,31.6,52.5z"/>
		<path class="st0" d="M53.8,55.1c-4.5,0-8.5-2.9-8.5-8.3c0-4.6,3.1-8.4,8.5-8.4c2.2,0,4.8,0.9,6.6,3.1l-3.2,2.7
			c-0.7-0.8-1.9-1.7-3.4-1.7c-2,0-3.9,1.5-3.9,4.2c0,2.2,1.5,4.1,3.9,4.1c1.3,0,2.6-0.7,3.4-1.7l3.2,2.7
			C59,53.7,56.7,55.1,53.8,55.1L53.8,55.1z"/>
		<path class="st0" d="M70.2,55.1c-5,0-8.5-3.4-8.5-8.4c0-5,3.5-8.4,8.5-8.4c4.9,0,8.4,3.4,8.4,8.4C78.6,51.7,75.1,55.1,70.2,55.1
			L70.2,55.1z M70.1,51.1c2.3,0,3.9-1.9,3.9-4.3c0-2.4-1.6-4.3-3.9-4.3c-2.3,0-3.9,1.9-3.9,4.3C66.2,49.2,67.9,51.1,70.1,51.1
			L70.1,51.1z"/>
		<path class="st0" d="M25.2,38.7v9.2c0,1.8-0.9,3-2.3,3c-1.6,0-2.2-1.6-2.2-3v-5.1c0-2.3-1.8-4.1-4.1-4.1h-0.5v9.4
			c0,4.4,2.6,7.1,6.8,7.1c4.2,0,6.8-2.7,6.8-7.1v-9.4H25.2z"/>
		<path class="st0" d="M0,38.6h4.3V45h4.8v-2c0-2.4,1.9-4.3,4.3-4.3h0v16H9.2v-5.8H4.3v5.8H0V38.6z"/>
	</g>
	<g>
		<polygon class="st0" points="18.7,30.3 18.7,7.6 39.2,7.6 39.2,30.3 46.5,30.3 46.5,7.6 46.5,0.2 39.2,0.2 18.7,0.2 11.3,0.2 
			11.3,7.6 11.3,30.3 		"/>
		<polygon class="st0" points="39.2,63.1 39.2,83.4 18.7,83.4 18.7,63.1 11.3,63.1 11.3,83.4 11.3,90.8 18.7,90.8 39.2,90.8 
			46.5,90.8 46.5,83.4 46.5,63.1 		"/>
		<path class="st0" d="M82.7,0.2c-15.4,0-27.9,12.5-27.9,27.9v2.2h7.3v-2.2c0-11.4,9.2-20.6,20.6-20.6v75.9H62.1V63.1h-7.3v20.3v7.3
			h7.3h20.6H90v-7.3V7.6V0.2H82.7z"/>
	</g>
</g>
</svg>
