<svg xmlns="http://www.w3.org/2000/svg" xmlns:xlink="http://www.w3.org/1999/xlink" viewBox="0 0 991.15 153.43"><defs><style>.cls-1{fill:url(#linear-gradient-2);}.cls-2,.cls-3{fill:#fff;}.cls-4{fill:#4d748d;}.cls-5{fill:url(#linear-gradient-6);}.cls-6{isolation:isolate;}.cls-3{filter:url(#outer-glow-1);}.cls-7{fill:url(#linear-gradient-11);}.cls-8{fill:url(#linear-gradient-10);}.cls-9{fill:#0073ae;}.cls-10{fill:#e6e6e6;}.cls-11{fill:#93adc2;}.cls-12{fill:url(#linear-gradient-5);}.cls-13{fill:#636466;}.cls-14{fill:url(#linear-gradient-7);}.cls-15{fill:#ed1c24;}.cls-16{fill:url(#linear-gradient-9);}.cls-17{fill:#20c4f4;}.cls-18{fill:#002d53;}.cls-19{fill:url(#linear-gradient-3);}.cls-20{fill:url(#linear-gradient);}.cls-21{fill:#231f20;}.cls-22{fill:url(#linear-gradient-4);}.cls-23{fill:url(#linear-gradient-8);}.cls-24{fill:url(#linear-gradient-12);}</style><filter id="outer-glow-1" filterUnits="userSpaceOnUse"><feOffset dx="0" dy="0"></feOffset><feGaussianBlur result="blur" stdDeviation="2.83"></feGaussianBlur><feFlood flood-color="#090c10" flood-opacity=".2"></feFlood><feComposite in2="blur" operator="in"></feComposite><feComposite in="SourceGraphic"></feComposite></filter><linearGradient id="linear-gradient" x1="-2363.22" y1="2820.36" x2="-2363.22" y2="3211.84" gradientTransform="translate(555.17 -486.65) scale(.19)" gradientUnits="userSpaceOnUse"><stop offset="0" stop-color="#a5aeb3"></stop><stop offset=".17" stop-color="#3c484f"></stop><stop offset=".26" stop-color="#838f97"></stop><stop offset=".4" stop-color="#909ba2"></stop><stop offset=".54" stop-color="#6d7a82"></stop><stop offset=".63" stop-color="#6b777f"></stop><stop offset=".72" stop-color="#e3e8eb"></stop><stop offset=".79" stop-color="#fff"></stop><stop offset="1" stop-color="#3c484f"></stop></linearGradient><linearGradient id="linear-gradient-2" x1="-2579.05" y1="2820.39" x2="-2579.05" y2="3211.83" xlink:href="#linear-gradient"></linearGradient><linearGradient id="linear-gradient-3" x1="-2352.11" y1="3473.88" x2="-2352.11" y2="3853.51" gradientTransform="translate(532.41 -491.45) scale(.16)" xlink:href="#linear-gradient"></linearGradient><linearGradient id="linear-gradient-4" x1="-2105.5" y1="3473.86" x2="-2105.5" y2="3853.53" gradientTransform="translate(532.41 -491.45) scale(.16)" xlink:href="#linear-gradient"></linearGradient><linearGradient id="linear-gradient-5" x1="-1889.3" y1="3473.86" x2="-1889.3" y2="3853.53" gradientTransform="translate(532.41 -491.45) scale(.16)" xlink:href="#linear-gradient"></linearGradient><linearGradient id="linear-gradient-6" x1="-1669.14" y1="3473.86" x2="-1669.14" y2="3853.53" gradientTransform="translate(532.41 -491.45) scale(.16)" xlink:href="#linear-gradient"></linearGradient><linearGradient id="linear-gradient-7" x1="-1457.88" y1="3473.86" x2="-1457.88" y2="3853.53" gradientTransform="translate(532.41 -491.45) scale(.16)" xlink:href="#linear-gradient"></linearGradient><linearGradient id="linear-gradient-8" x1="-1221.23" y1="3473.88" x2="-1221.23" y2="3853.51" gradientTransform="translate(532.41 -491.45) scale(.16)" xlink:href="#linear-gradient"></linearGradient><linearGradient id="linear-gradient-9" x1="-1008.36" y1="3473.87" x2="-1008.36" y2="3853.54" gradientTransform="translate(532.41 -491.45) scale(.16)" xlink:href="#linear-gradient"></linearGradient><linearGradient id="linear-gradient-10" x1="-788.79" y1="3473.86" x2="-788.79" y2="3853.53" gradientTransform="translate(532.41 -491.45) scale(.16)" xlink:href="#linear-gradient"></linearGradient><linearGradient id="linear-gradient-11" x1="-577.96" y1="3473.87" x2="-577.96" y2="3853.54" gradientTransform="translate(532.41 -491.45) scale(.16)" xlink:href="#linear-gradient"></linearGradient><linearGradient id="linear-gradient-12" x1="-374.82" y1="3473.86" x2="-374.82" y2="3853.53" gradientTransform="translate(532.41 -491.45) scale(.16)" xlink:href="#linear-gradient"></linearGradient></defs><g id="Rexroth_area"><rect id="Brand_Surface" class="cls-3" x="800.21" y="48.3" width="179.84" height="94.03"></rect><g id="A_Bosch_Company"><g><path class="cls-18" d="m823.68,117.5h-1.58l4.02-11.11h1.74l3.96,11.11h-1.72l-.89-2.59h-4.64l-.89,2.59Zm5.08-3.9l-1.86-5.46-1.88,5.46h3.74Z"></path><g><path class="cls-18" d="m838.73,106.4h4.44c2.36,0,3.6,1.01,3.6,2.93,0,1.13-.44,1.8-1.52,2.36,1.44.47,2.1,1.29,2.1,2.66,0,2-1.4,3.15-3.84,3.15h-4.78v-11.11Zm4.68,4.74c1.18,0,1.75-.57,1.75-1.75s-.62-1.68-1.99-1.68h-2.81v3.43h3.05Zm.2,5.06c1.37,0,2.13-.67,2.13-1.89s-.78-1.87-2.25-1.87h-3.12v3.76h3.25Z"></path><path class="cls-18" d="m856.76,113.42c0,2.47-1.65,4.24-3.94,4.24s-3.93-1.75-3.93-4.19,1.65-4.24,3.98-4.24c2.25,0,3.9,1.77,3.9,4.19Zm-6.18.03c0,1.8.86,2.91,2.22,2.91s2.27-1.1,2.27-2.92-.85-2.9-2.2-2.9c-1.44,0-2.28,1.07-2.28,2.92Z"></path><path class="cls-18" d="m863.52,111.38c-.61-.61-1.18-.85-1.99-.85-.9,0-1.4.32-1.4.92,0,.65.37.9,1.8,1.19.88.19,1.4.36,1.82.62.67.43,1.01,1.07,1.01,1.9,0,1.54-1.23,2.5-3.2,2.5-1.49,0-2.53-.45-3.45-1.46l1.04-.98c.67.84,1.27,1.13,2.33,1.13,1.12,0,1.73-.39,1.73-1.1,0-.67-.36-.89-1.99-1.26-1.85-.41-2.61-1.12-2.61-2.42,0-1.44,1.13-2.35,2.97-2.35,1.26,0,2.08.31,2.89,1.1l-.95,1.06Z"></path><path class="cls-18" d="m873.66,115.69c-.76,1.34-1.86,1.97-3.4,1.97-2.3,0-3.88-1.71-3.88-4.19s1.55-4.24,3.85-4.24c1.46,0,2.5.59,3.26,1.88l-1.31.76c-.61-1.02-1.06-1.33-1.91-1.33-1.41,0-2.24,1.07-2.24,2.92s.81,2.91,2.27,2.91c.96,0,1.52-.37,2.1-1.38l1.26.72Z"></path><path class="cls-18" d="m875.38,105.81h1.63v4.83c.5-.95,1.32-1.42,2.44-1.42,1.71,0,2.67,1.15,2.67,3.19v5.09h-1.63v-5.02c0-1.3-.48-1.89-1.55-1.89-1.18,0-1.93.79-1.93,2.05v4.86h-1.63v-11.7Z"></path></g><g><path class="cls-18" d="m898.47,114.38c-.47,1.21-.9,1.85-1.63,2.41-.76.57-1.71.87-2.84.87-3.04,0-5.06-2.25-5.06-5.68s2.07-5.75,5.05-5.75c1.3,0,2.36.39,3.14,1.13.53.51.82.99,1.23,2.04l-1.46.56c-.58-1.69-1.43-2.39-2.89-2.39-2.09,0-3.37,1.66-3.37,4.39s1.27,4.37,3.4,4.37c1.52,0,2.42-.76,2.97-2.52l1.48.58Z"></path><path class="cls-18" d="m907.74,113.42c0,2.47-1.65,4.24-3.94,4.24s-3.93-1.75-3.93-4.19,1.65-4.24,3.97-4.24c2.25,0,3.9,1.77,3.9,4.19Zm-6.18.03c0,1.8.86,2.91,2.22,2.91s2.27-1.1,2.27-2.92-.85-2.9-2.21-2.9c-1.44,0-2.28,1.07-2.28,2.92Z"></path><path class="cls-18" d="m911.57,110.61c.5-.92,1.24-1.38,2.25-1.38,1.07,0,1.78.47,2.25,1.46.65-.99,1.45-1.46,2.52-1.46,1.63,0,2.58,1.18,2.58,3.19v5.09h-1.63v-5.03c0-1.29-.43-1.88-1.38-1.88-1.09,0-1.79.81-1.79,2.03v4.88h-1.63v-5.03c0-1.27-.45-1.88-1.4-1.88-1.07,0-1.77.81-1.77,2.03v4.88h-1.63v-8.12h1.63v1.23Z"></path><path class="cls-18" d="m923.81,109.38h1.63v1.3c.62-.96,1.51-1.46,2.63-1.46,2.07,0,3.43,1.66,3.43,4.19s-1.35,4.24-3.43,4.24c-1.15,0-2.05-.5-2.63-1.43v4.1h-1.63s0-10.95,0-10.95Zm1.58,4.07c0,1.85.82,2.91,2.27,2.91s2.18-.96,2.18-2.87-.8-2.95-2.15-2.95c-1.44,0-2.3,1.09-2.3,2.92Z"></path><path class="cls-18" d="m940.54,117.54c-.28.03-.44.05-.58.05-.95,0-1.51-.37-1.78-1.2-.68.89-1.46,1.27-2.48,1.27-1.52,0-2.55-.93-2.55-2.3,0-1.18.71-2,2.1-2.41.78-.22,1.45-.3,2.83-.33v-.42c0-1.16-.47-1.67-1.52-1.67-.84,0-1.51.28-2.32.96l-.84-1.05c.98-.85,1.94-1.21,3.26-1.21,1.97,0,3.04,1.04,3.04,2.95v3.42c0,.51.22.76.65.76.03,0,.12,0,.19-.01v1.2Zm-2.47-3.81c-2.21.02-3.31.53-3.31,1.54,0,.72.48,1.13,1.32,1.13,1.16,0,1.99-.68,1.99-1.64v-1.03Z"></path><path class="cls-18" d="m942.55,109.38h1.63v1.26c.5-.95,1.32-1.42,2.44-1.42,1.71,0,2.67,1.15,2.67,3.19v5.09h-1.63v-5.02c0-1.3-.48-1.89-1.56-1.89-1.18,0-1.93.79-1.93,2.05v4.86h-1.63v-8.12Z"></path><path class="cls-18" d="m954.85,118.53c-.47,1.29-1.24,1.91-2.39,1.91-.63,0-1.15-.16-1.65-.5l.53-1.13c.34.23.65.33,1.01.33.59,0,.96-.31,1.16-.98l.24-.74-3.08-8.03h1.74l2.13,5.86,1.99-5.86h1.63l-3.31,9.15Z"></path></g></g></g><g id="Rexroth-Logo"><g><g><polygon class="cls-17" points="828.5 97.55 828.5 91.66 825.31 89.88 822.09 90.26 822.09 97.55 828.5 97.55"></polygon><path class="cls-18" d="m828.5,86.54c0-3.35,1.8-5.44,4.6-5.44,1.05,0,1.72.21,2.64.75l1.59-5.77c-1-.63-1.97-.88-3.18-.88-2.47,0-4.23,1.3-5.65,4.18v-3.72h-6.4v14.6c1.15.29,3.35.81,6.4,1.4v-5.12Z"></path></g><g><path class="cls-17" d="m848.37,98.01c3.4,0,6.1-1.05,8.09-3.09l-8.58-1.16-8.94-.39c1.89,2.81,5.12,4.64,9.43,4.64Z"></path><path class="cls-18" d="m856.46,94.92c.53-.55,1.03-1.16,1.45-1.85l-4.98-2.47c-1.17,1.88-2.39,2.6-4.48,2.6-4.89,0-4.95-4.8-4.98-4.98h14.86v-1.72c0-7.12-3.85-11.38-10.25-11.38s-11.05,4.81-11.05,11.68c0,2.47.67,4.73,1.91,6.58,5.05.68,10.99,1.27,17.52,1.55Zm-8.42-15.07c2.55,0,3.73,1.34,4.06,4.48h-8.5c.59-3.1,1.93-4.48,4.44-4.48Z"></path></g><g><polygon class="cls-11" points="873.34 97.55 880.83 97.55 878.53 94.13 874.73 93.51 871.63 94.82 873.34 97.55"></polygon><polygon class="cls-4" points="864.43 97.55 866.02 95.07 862.88 94.32 859.53 95.03 857.81 97.55 864.43 97.55"></polygon><path class="cls-18" d="m866.02,95.07l2.92-4.55,2.69,4.3c2.3-.16,4.6-.4,6.89-.69l-5.56-8.26,7.12-10.21h-6.61l-3.89,6.23-3.89-6.23h-7.37l7.12,10.71-5.9,8.65c1.57.04,3.17.07,4.8.07.56,0,1.12-.01,1.68-.02Z"></path></g><g><polygon class="cls-11" points="889.33 97.55 889.33 92.4 885.8 92 882.93 93.51 882.93 97.55 889.33 97.55"></polygon><path class="cls-18" d="m889.33,86.54c0-3.35,1.8-5.44,4.6-5.44,1.04,0,1.71.21,2.64.75l1.59-5.77c-1.01-.63-1.97-.88-3.18-.88-2.47,0-4.23,1.3-5.65,4.18v-3.72h-6.4v17.85c2.14-.33,4.27-.71,6.4-1.11,0,0,0-5.86,0-5.86Z"></path></g><g><path class="cls-4" d="m920.1,86.5c0-.3-.01-.61-.04-.92l-3.21-.37-3.28,1.83c-.03,1.47-.43,5.65-4.23,5.97l-.46,2.5,1,2.47c6.04-.46,10.22-5.04,10.22-11.47Z"></path><path class="cls-17" d="m908.89,93.03c-2.86,0-3.96-2.07-4.38-3.88h-3.36l-2.9,1.42c1.86,6.27,8.15,7.44,10.64,7.44.34,0,.67-.02,1-.05l-.54-4.97c-.15.01-.3.03-.46.03Z"></path><path class="cls-18" d="m904.24,86.58c0-4.27,1.63-6.49,4.77-6.49,2.93,0,4.56,2.3,4.56,6.44,0,.06,0,.24,0,.49,2.2-.51,4.36-1,6.49-1.45-.37-4.82-3.66-10.46-11.01-10.46-6.7,0-11.34,4.77-11.34,11.59,0,1.47.21,2.74.54,3.86,2.1-.46,4.19-.94,6.26-1.42-.28-1.18-.27-2.25-.27-2.56Z"></path></g><g><path class="cls-4" d="m930.64,98.01c2.09,0,3.72-.54,5.23-1.71l-1.55-4.27c-.79.46-1.46.67-2.22.67-1.26,0-1.84-.75-1.84-2.38v-6.66l-3.26-.5-3.15,1.64v6.31c0,4.39,2.47,6.9,6.78,6.9Z"></path><path class="cls-18" d="m930.26,80.64h4.6v-4.98h-4.6v-6.61l-6.4,2.22v4.4h-3.01v4.98h3.01v4.15c2.18-.43,4.32-.82,6.4-1.15v-3.01Z"></path></g><g><path class="cls-15" d="m951.75,84.24v13.31h6.4v-13.15l-3.23-1.83-3.23.69c.04.3.06.62.06.98Z"></path><path class="cls-17" d="m944.47,97.55v-12.89c0-.82.11-1.49.3-2.04l-3.47-.89-3.23,1v14.82s6.4,0,6.4,0Z"></path><path class="cls-18" d="m944.77,82.62c.84-2.48,3.2-2.52,3.72-2.52.17,0,2.79-.36,3.21,3.16,2.19.31,4.35.7,6.46,1.14,0-5.33-1.59-9.29-6.9-9.29-3.1,0-5.32,1.3-6.78,3.98v-13.06h-6.4v16.7c1.48-.1,2.92-.16,4.33-.16.79,0,1.58.02,2.37.05Z"></path></g></g></g></g><g id="Brand_Space"><rect id="Brand_Surface-2" class="cls-9" x="675.91" y="11.15" width="214.21" height="37.14"></rect><g class="cls-6"><path class="cls-2" d="m696.58,35.46c-1,1.24-2.6,1.94-4.18,1.94-.68,0-1.38-.12-2-.36-2.1-.76-2.98-2.52-2.98-4.68h4.02c.04.74.18,1.72,1.14,1.72,1.08,0,1.14-1.06,1.14-1.88v-9.88h3.78v8.94c0,1.42,0,3.04-.92,4.2Z"></path><path class="cls-2" d="m705.12,37.46c-3.4,0-5.98-2.5-5.98-5.9s2.58-5.9,5.98-5.9,5.98,2.5,5.98,5.9-2.58,5.9-5.98,5.9Zm0-8.7c-1.54,0-2.66,1.3-2.66,2.8s1.12,2.8,2.66,2.8,2.66-1.3,2.66-2.8-1.12-2.8-2.66-2.8Z"></path><path class="cls-2" d="m712.98,24.84v-2.52h3.32v2.52h-3.32Zm0,12.28v-11.1h3.32v11.1h-3.32Z"></path><path class="cls-2" d="m725.66,37.12v-6.06c0-1.24-.24-2.3-1.74-2.3s-1.9,1-1.9,2.32v6.04h-3.32v-11.1h3.1v1.18h.04c.7-1.14,1.68-1.56,3.02-1.56.94,0,2.12.36,2.84.96,1.06.88,1.28,2.28,1.28,3.58v6.94h-3.32Z"></path><path class="cls-2" d="m731.34,24.84v-2.52h3.32v2.52h-3.32Zm0,12.28v-11.1h3.32v11.1h-3.32Z"></path><path class="cls-2" d="m744.02,37.12v-6.06c0-1.24-.24-2.3-1.74-2.3s-1.9,1-1.9,2.32v6.04h-3.32v-11.1h3.1v1.18h.04c.7-1.14,1.68-1.56,3.02-1.56.94,0,2.12.36,2.84.96,1.06.88,1.28,2.28,1.28,3.58v6.94h-3.32Z"></path><path class="cls-2" d="m760.54,39.44c-1.1,1.86-3.6,2.62-5.62,2.62-1.88,0-3.76-.58-4.86-2.18-.36-.52-.6-1.1-.68-1.72h3.84c.36.8,1.12,1.1,1.94,1.1,1.82,0,2.7-1.26,2.7-3.02v-.34h-.04c-.58,1.08-1.86,1.58-3.04,1.58-3.32,0-5.6-2.6-5.6-5.84s2.22-5.98,5.6-5.98c1.14,0,2.42.38,3.06,1.4h.04v-1.04h3.32v9.76c0,1.24-.02,2.56-.66,3.66Zm-5.36-10.68c-1.54,0-2.68,1.26-2.68,2.76s1.06,2.86,2.66,2.86,2.72-1.16,2.72-2.76-1.06-2.86-2.7-2.86Z"></path><path class="cls-2" d="m773.18,28.54v8.58h-3.32v-8.58h-1.24v-2.52h1.24v-.58c0-2.7,1.92-3.4,4.24-3.4h.48v2.5c-1.2,0-1.4.24-1.4,1.48h1.4v2.52h-1.4Z"></path><path class="cls-2" d="m781.38,37.46c-3.4,0-5.98-2.5-5.98-5.9s2.58-5.9,5.98-5.9,5.98,2.5,5.98,5.9-2.58,5.9-5.98,5.9Zm0-8.7c-1.54,0-2.66,1.3-2.66,2.8s1.12,2.8,2.66,2.8,2.66-1.3,2.66-2.8-1.12-2.8-2.66-2.8Z"></path><path class="cls-2" d="m792.54,31.02v6.1h-3.32v-11.1h3.12v1.18h.04c.58-1.14,1.5-1.56,2.78-1.56v3.34c-1.46.04-2.62.32-2.62,2.04Z"></path><path class="cls-2" d="m801.74,37.48c-3.32,0-5.94-2.62-5.94-5.94s2.56-5.9,5.86-5.9c2.84,0,5.3,1.84,5.88,4.66h-3.36c-.48-1.04-1.34-1.56-2.48-1.56-1.6,0-2.56,1.32-2.56,2.82s1.02,2.82,2.64,2.82c1.1,0,1.9-.52,2.4-1.48h3.38c-.64,2.72-3.02,4.58-5.82,4.58Z"></path><path class="cls-2" d="m820.38,32.58h-8.32c.2,1.32,1.3,2.1,2.6,2.1.9,0,1.48-.36,2.02-1.04h3.4c-.96,2.22-2.92,3.84-5.42,3.84-3.24,0-5.88-2.64-5.88-5.88s2.56-5.96,5.82-5.96,5.86,2.72,5.86,6.06c0,.3-.02.58-.08.88Zm-5.76-4.14c-1.2,0-2.26.7-2.52,1.9h5.04c-.26-1.2-1.32-1.9-2.52-1.9Z"></path><path class="cls-2" d="m826.1,37.5c-2.32,0-4.26-1.24-4.52-3.68h3.3c.1.68.6,1.02,1.26,1.02.5,0,1.16-.28,1.16-.86,0-.8-.9-1.04-1.5-1.28-.48-.16-.96-.32-1.44-.5-1.32-.48-2.64-1.34-2.64-2.9,0-2.32,2.16-3.66,4.3-3.66s4.04,1.14,4.26,3.5h-3.26c-.02-.62-.46-.84-1.04-.84-.44,0-.94.24-.94.74,0,1.74,5.58.76,5.58,4.68,0,2.5-2.26,3.78-4.52,3.78Z"></path><path class="cls-2" d="m850.72,37.12h-3.08l-1.86-7.18h-.04l-1.86,7.18h-3.08l-3.4-11.1h3.44l1.66,6.9h.04l1.82-6.9h2.8l1.84,6.9h.04l1.66-6.9h3.42l-3.4,11.1Z"></path><path class="cls-2" d="m855.46,24.84v-2.52h3.32v2.52h-3.32Zm0,12.28v-11.1h3.32v11.1h-3.32Z"></path><path class="cls-2" d="m865.26,28.54v8.58h-3.32v-8.58h-1.64v-2.52h1.64v-3.7h3.32v3.7h1.6v2.52h-1.6Z"></path><path class="cls-2" d="m875.26,37.12v-6.04c0-1.2-.34-2.32-1.78-2.32s-1.86.94-1.86,2.2v6.16h-3.32v-14.8h3.32v4.72h.04c.58-1.04,1.74-1.4,2.86-1.4s2.3.38,3.02,1.22c1.06,1.22,1.04,2.54,1.04,4.06v6.2h-3.32Z"></path></g></g><g id="HF_Area"><g><g><path class="cls-13" d="m12.47,120.4c0-2.08,1.57-3.64,3.58-3.64s3.54,1.57,3.54,3.64-1.57,3.66-3.54,3.66-3.58-1.55-3.58-3.66Zm3.58,4.39c2.38,0,4.43-1.85,4.43-4.39s-2.04-4.38-4.43-4.38-4.46,1.86-4.46,4.38,2.05,4.39,4.46,4.39Zm-.93-4.05h.88l1.34,2.19h.86l-1.44-2.22c.75-.1,1.31-.49,1.31-1.4,0-.99-.59-1.44-1.78-1.44h-1.93v5.06h.77v-2.19Zm0-.65v-1.56h1.04c.54,0,1.1.12,1.1.74,0,.78-.58.82-1.22.82h-.92Z"></path><g><g><polygon class="cls-20" points="103.56 106.11 94.18 123.95 113.45 123.95 118.14 114.45 118.14 106.11 103.56 106.11"></polygon><path class="cls-1" d="m12.17,86.59l19-37.5h18.76l-14.32,28.64h40.88l-13.54-28.38h55.2v17.7h-26.82l5.21,10.68h21.09v17.71h-21.09l-14.58,28.38h-19.01l13.54-28.38h-40.88l14.32,28.64h-18.76l-19-37.49Zm30.03-32.77h-8.12l-16.61,32.92,16.61,32.56h8.18l-14.59-28.59h85.05v-8.18H27.67l14.53-28.71Z"></path></g><g><polygon class="cls-21" points="11.11 86.56 13.2 86.56 31.74 123.1 30.56 125 11.11 86.56"></polygon><polygon class="cls-21" points="30.56 125 51.39 125 48.35 123.1 31.74 123.1 30.56 125"></polygon><polygon class="cls-10" points="48.35 123.1 51.44 125.02 37.13 96.33 34.08 94.49 48.35 123.1"></polygon><polygon class="cls-21" points="34.08 94.48 37.13 96.4 74.92 96.4 77.97 94.48 34.08 94.48"></polygon><polygon class="cls-10" points="77.98 94.49 74.96 96.39 61.43 124.78 64.43 122.88 77.98 94.49"></polygon><polygon class="cls-21" points="64.4 122.88 61.44 124.8 82.52 124.8 81.37 122.88 64.4 122.88"></polygon><polygon class="cls-21" points="81.36 122.88 82.52 124.76 97.15 96.37 95.95 94.48 81.36 122.88"></polygon><polygon class="cls-21" points="97.1 96.39 118.54 96.39 116.67 94.48 95.96 94.48 97.1 96.39"></polygon><polygon class="cls-21" points="116.66 94.48 118.55 96.38 118.55 76.8 116.65 78.67 116.66 94.48"></polygon><polygon class="cls-10" points="118.54 76.8 97.15 76.8 95.92 78.7 116.64 78.7 118.54 76.8"></polygon><polygon class="cls-10" points="97.15 76.8 92.83 67.98 89.83 66.13 95.92 78.7 97.15 76.8"></polygon><polygon class="cls-21" points="89.81 66.09 92.87 67.98 119.05 67.98 117.15 66.09 89.81 66.09"></polygon><polygon class="cls-21" points="119.05 67.98 117.15 66.13 117.15 50.27 119.05 48.41 119.05 67.98"></polygon><polygon class="cls-10" points="119.04 48.41 117.17 50.28 64.41 50.28 61.45 48.41 119.04 48.41"></polygon><polygon class="cls-21" points="64.41 50.28 61.45 48.41 74.97 76.76 77.97 78.66 64.41 50.28"></polygon><polygon class="cls-10" points="74.97 76.76 77.97 78.66 34.05 78.66 37.1 76.76 74.97 76.76"></polygon><polygon class="cls-21" points="34.05 78.66 37.1 76.76 51.42 48.14 48.34 50.04 34.05 78.66"></polygon><polygon class="cls-10" points="51.46 48.14 48.31 50.04 31.77 50.04 30.58 48.14 51.46 48.14"></polygon><polygon class="cls-21" points="33.48 52.88 43.7 52.88 40.63 54.75 34.64 54.75 33.48 52.88"></polygon><polygon class="cls-10" points="40.63 54.77 43.72 52.88 29.2 81.56 26.12 83.45 40.63 54.77"></polygon><polygon class="cls-21" points="34.64 54.77 33.5 52.88 16.39 86.74 18.54 86.74 34.64 54.77"></polygon><polygon class="cls-10" points="18.52 86.72 16.39 86.72 33.48 120.23 34.64 118.36 18.52 86.72"></polygon><polygon class="cls-10" points="34.64 118.36 33.48 120.23 43.79 120.23 40.68 118.36 34.64 118.36"></polygon><polygon class="cls-21" points="40.73 118.36 43.79 120.23 29.22 91.66 26.12 89.77 40.73 118.36"></polygon><polygon class="cls-10" points="29.22 91.66 26.12 89.77 111.76 89.77 113.63 91.66 29.22 91.66"></polygon><polygon class="cls-10" points="111.76 89.75 111.76 83.45 113.65 81.59 113.65 91.66 111.76 89.75"></polygon><polygon class="cls-21" points="111.76 83.47 26.15 83.47 29.2 81.6 113.65 81.6 111.76 83.47"></polygon><polygon class="cls-10" points="30.59 48.17 11.11 86.56 13.23 86.56 31.75 50.04 30.59 48.17"></polygon><polygon class="cls-10" points="102.97 105.17 104.09 107.07 117.2 107.07 119.1 105.17 102.97 105.17"></polygon><polygon class="cls-21" points="119.07 105.17 119.07 114.65 117.2 114.19 117.2 107.04 119.07 105.17"></polygon><polygon class="cls-21" points="119.07 114.65 117.2 114.19 112.84 122.99 114.03 124.86 119.07 114.65"></polygon><polygon class="cls-21" points="112.84 122.97 95.76 122.97 92.62 124.89 114.03 124.89 112.84 122.97"></polygon><polygon class="cls-10" points="95.73 122.97 92.62 124.86 102.97 105.17 104.12 107.07 95.73 122.97"></polygon></g></g></g><g><g><path class="cls-21" d="m173.78,103.51h-11.89v-12.94h-15.52v12.94h-11.88v-33.02h11.88v12.41h15.52v-12.41h11.89v33.02Z"></path><path class="cls-21" d="m198.37,94.58v8.92h-9.17v-8.92l-12.19-16.53h10.5l6.14,9.81h.31l6.33-9.81h10.63l-12.55,16.53Z"></path><path class="cls-21" d="m222.42,83.89h8.02c3.21,0,4.63.68,4.63,3.97v5.33c0,2.69-1.24,4.35-4.63,4.35h-8.02v-13.64Zm-9.16,19.62h18.64c9.58,0,12.6-3.29,12.6-10.25v-5.33c0-7.22-4.26-9.88-13.83-9.88h-17.41v25.46Z"></path><path class="cls-21" d="m258.84,90.77v-6.89h7.11c3.02,0,3.79.64,3.79,2.91,0,2.88.14,3.97-3.79,3.97h-7.11Zm-9.16,12.73h9.16v-6.76h7.11c2.74,0,3.85,1.3,3.75,3.2v3.56h9.16v-5.13c0-2.88-2.43-4.41-6.18-4.51v-.27c6.5-1.12,6.5-3.6,6.5-7.85,0-6.34-3.89-7.6-11.83-7.7h-17.68v25.46Z"></path><path class="cls-21" d="m302.93,94.11h-8.53l4.17-11.04h.09l4.27,11.04Zm1.83,5.03l1.79,4.37h9.35l-10.44-25.46h-13.93l-10.31,25.46h9.53l1.7-4.37h12.33Z"></path><path class="cls-21" d="m332.84,84.18h18.19v7.22h-18.19v12.11h-11.89v-33.02h31.62v7.22h-19.74v6.48Z"></path><path class="cls-21" d="m371.15,97.74c-4.77,0-6.32-.38-6.47-4.18v-5.73c.14-3.77,1.7-4.15,6.47-4.15s6.46.38,6.46,4.15v5.73c0,3.8-1.69,4.18-6.46,4.18Zm0,5.97c9.3,0,15.9-1.49,15.9-9.34v-7.19c0-7.84-6.6-9.33-15.9-9.33s-15.91,1.49-15.91,9.33v7.19c0,7.84,6.6,9.34,15.91,9.34Z"></path><path class="cls-21" d="m401.02,90.77v-6.89h7.1c3.02,0,3.81.64,3.81,2.91,0,2.88.13,3.97-3.81,3.97h-7.1Zm-9.17,12.73h9.17v-6.76h7.1c2.75,0,3.84,1.3,3.76,3.2v3.56h9.16v-5.13c0-2.88-2.42-4.41-6.18-4.51v-.27c6.51-1.12,6.51-3.6,6.51-7.85,0-6.34-3.9-7.6-11.82-7.7h-17.69v25.46Z"></path><path class="cls-21" d="m455.78,93.87v.75c0,2.78-.04,5.29-3.16,7.23-3.12,1.9-6.92,1.86-10.91,1.86-9.35,0-16.18-.34-16.18-9.64v-6.58c0-8.42,6.1-9.64,16.18-9.64,9.44,0,13.84.7,14.03,8.35v.99h-9.45v-.99c-.31-2.27-2.46-2.44-5.59-2.44-5.22,0-5.73,1.18-5.73,4.82v3.97c0,3.81.24,5.27,5.73,5.27,3.81,0,5.65-.21,5.65-3.19v-.75h9.43Z"></path><path class="cls-21" d="m470.08,88.27h14.66v4.72h-14.66v4.95h15.94v5.57h-25.11v-25.46h24.79v5.57h-15.62v4.65Z"></path></g><g><path class="cls-19" d="m172.19,101.99h-11.89v-12.94h-15.51v12.94h-11.88v-33.02h11.88v12.41h15.51v-12.41h11.89v33.02Z"></path><path class="cls-22" d="m196.77,93.06v8.93h-9.17v-8.93l-12.19-16.53h10.49l6.15,9.81h.32l6.33-9.81h10.63l-12.55,16.53Z"></path><path class="cls-12" d="m220.83,82.44h8.02c3.21,0,4.62.68,4.62,3.97v5.33c0,2.68-1.23,4.35-4.62,4.35h-8.02v-13.65Zm-9.17,19.55h18.65c9.58,0,12.6-3.29,12.6-10.25v-5.33c0-7.23-4.26-9.88-13.84-9.88h-17.41v25.46Z"></path><path class="cls-5" d="m257.25,89.33v-6.9h7.1c3.03,0,3.8.64,3.8,2.92,0,2.88.14,3.98-3.8,3.98h-7.1Zm-9.17,12.65h9.17v-6.76h7.1c2.74,0,3.84,1.29,3.75,3.19v3.56h9.16v-5.12c0-2.89-2.42-4.41-6.18-4.52v-.27c6.51-1.12,6.51-3.6,6.51-7.84,0-6.35-3.9-7.61-11.83-7.71h-17.69v25.46Z"></path><path class="cls-14" d="m301.34,92.65h-8.52l4.16-11.03h.09l4.27,11.03Zm1.83,4.96l1.79,4.38h9.35l-10.45-25.46h-13.94l-10.31,25.46h9.53l1.69-4.38h12.33Z"></path><path class="cls-23" d="m331.25,82.65h18.19v7.23h-18.19v12.11h-11.88v-33.02h31.62v7.21h-19.73v6.47Z"></path><path class="cls-16" d="m369.55,96.29c-4.77,0-6.32-.37-6.46-4.18v-5.74c.14-3.76,1.69-4.14,6.46-4.14s6.46.37,6.46,4.14v5.74c0,3.8-1.69,4.18-6.46,4.18Zm0,5.91c9.31,0,15.91-1.5,15.91-9.34v-7.19c0-7.84-6.6-9.33-15.91-9.33s-15.9,1.49-15.9,9.33v7.19c0,7.84,6.59,9.34,15.9,9.34Z"></path><path class="cls-8" d="m399.43,89.33v-6.9h7.1c3.02,0,3.81.64,3.81,2.92,0,2.88.14,3.98-3.81,3.98h-7.1Zm-9.16,12.65h9.16v-6.76h7.1c2.75,0,3.85,1.29,3.77,3.19v3.56h9.15v-5.12c0-2.89-2.42-4.41-6.18-4.52v-.27c6.51-1.12,6.51-3.6,6.51-7.84,0-6.35-3.9-7.61-11.83-7.71h-17.68v25.46Z"></path><path class="cls-7" d="m454.19,92.34v.75c0,2.79-.05,5.3-3.16,7.23-3.12,1.9-6.92,1.87-10.92,1.87-9.34,0-16.17-.34-16.17-9.65v-6.58c0-8.41,6.09-9.63,16.17-9.63,9.44,0,13.84.71,14.03,8.35v.98h-9.44v-.98c-.31-2.27-2.47-2.44-5.58-2.44-5.23,0-5.73,1.19-5.73,4.82v3.97c0,3.81.22,5.27,5.73,5.27,3.8,0,5.63-.2,5.63-3.19v-.75h9.44Z"></path><path class="cls-24" d="m468.49,86.74h14.66v4.72h-14.66v4.95h15.94v5.57h-25.11v-25.46h24.79v5.56h-15.62v4.65Z"></path></g></g></g><g><path class="cls-9" d="m252.83,141.8h-4.71v-16.78h6.44c3.56,0,4.93.43,6.1,1.17,1.53.99,2.44,2.62,2.44,4.38s-.9,3.46-2.25,4.35c-1.53,1-3.01,1.34-5.85,1.34h-2.16v5.54h0Zm0-9.05h2.07c.86,0,1.75-.05,2.51-.38.73-.31,1.14-.95,1.14-1.75,0-1.08-.74-1.54-1.18-1.73-.74-.31-1.58-.38-2.62-.38h-1.92v4.23h0Z"></path><path class="cls-9" d="m274.94,142.1c-6.11,0-10.9-3.75-10.9-8.54,0-5.05,4.69-8.84,10.91-8.84s10.94,3.82,10.94,8.69-4.81,8.69-10.96,8.69h0Zm.04-13.9c-4.04,0-6.22,2.66-6.22,5.15,0,2.99,2.69,5.22,6.27,5.22,3.86,0,6.16-2.63,6.16-5.17s-2.32-5.2-6.21-5.2h0Z"></path><path class="cls-9" d="m305.93,141.8h-4.13l-3.31-10.67-3.27,10.67h-4.24l-5.56-16.78h4.83l3.19,10.87,3.27-10.87h3.58l3.3,10.91,3.18-10.91h4.8l-5.67,16.78h0Z"></path><path class="cls-9" d="m325.68,141.8h-11.98v-16.78h11.98v3.5h-7.27v3.02h7.13v3.5h-7.13v3.25h7.27v3.51h0Z"></path><path class="cls-9" d="m343.63,141.8h-5.05l-5.89-8.15h1.41c1.28,0,2.69-.06,3.45-.54.72-.47,1.13-1.23,1.13-2.08s-.51-1.64-1.33-2.06c-.62-.31-1.47-.45-2.7-.45h-2.06v13.28h-4.71v-16.78h6.42c2.97,0,4.94.34,6.19,1.08,1.73.98,2.73,2.68,2.73,4.65.02,1.2-.38,2.31-1.15,3.22-.73.85-1.68,1.4-3.02,1.74l4.57,6.09h0Z"></path><path class="cls-9" d="m358,141.8h-4.71v-16.78h11.38v3.5h-6.67v3.2h6.51v3.51h-6.51v6.57h0Z"></path><path class="cls-9" d="m376.74,142.1c-6.11,0-10.89-3.75-10.89-8.54,0-5.05,4.69-8.84,10.91-8.84s10.94,3.82,10.94,8.69-4.81,8.69-10.96,8.69h0Zm.04-13.9c-4.04,0-6.23,2.66-6.23,5.15,0,2.99,2.69,5.22,6.27,5.22,3.86,0,6.16-2.63,6.16-5.17s-2.32-5.2-6.2-5.2h0Z"></path><path class="cls-9" d="m405.08,141.8h-5.05l-5.89-8.15h1.41c1.28,0,2.69-.06,3.45-.54.72-.47,1.14-1.23,1.14-2.08s-.51-1.64-1.33-2.06c-.62-.31-1.47-.45-2.7-.45h-2.06v13.28h-4.71v-16.78h6.42c2.97,0,4.94.34,6.19,1.08,1.73.98,2.73,2.68,2.73,4.65.01,1.2-.39,2.31-1.15,3.22-.73.85-1.67,1.4-3.02,1.74l4.57,6.09h0Z"></path><path class="cls-9" d="m425.47,141.8h-4.13l-3.31-10.67-3.27,10.67h-4.24l-5.56-16.78h4.83l3.19,10.87,3.28-10.87h3.58l3.3,10.91,3.18-10.91h4.8l-5.67,16.78h0Z"></path><path class="cls-9" d="m448.63,141.8h-5.17l-1.47-3.16h-7.52l-1.46,3.16h-5.13l8.48-16.78h3.99l8.29,16.78h0Zm-12.83-6.4h4.81l-2.43-5.43-2.38,5.43h0Z"></path><path class="cls-9" d="m466.28,141.8h-5.05l-5.89-8.15h1.41c1.28,0,2.69-.06,3.45-.54.72-.47,1.14-1.23,1.14-2.08s-.51-1.64-1.33-2.06c-.61-.31-1.47-.45-2.7-.45h-2.06v13.28h-4.71v-16.78h6.42c2.97,0,4.94.34,6.19,1.08,1.73.98,2.73,2.68,2.73,4.65.01,1.2-.39,2.31-1.15,3.22-.73.85-1.68,1.4-3.02,1.74l4.58,6.09h0Z"></path><path class="cls-9" d="m475.21,141.8h-7.04v-16.78h6.76c3.03,0,6.44.34,8.79,2.89,1.42,1.43,2.15,3.27,2.15,5.47,0,5.35-3.88,8.42-10.65,8.42h0Zm-2.33-3.51h2.56c3.69,0,5.72-1.73,5.72-4.86,0-1.33-.45-2.54-1.26-3.41-1-1.01-2.45-1.51-4.44-1.51h-2.58v9.77h0Z"></path></g><path class="cls-9" d="m492.03,133.53c-2.21,0-4.01-1.78-4.01-4s1.8-4,4.01-4,3.99,1.8,3.99,4-1.79,4-3.99,4Zm0-7.1c-1.72,0-3.06,1.39-3.06,3.1s1.34,3.1,3.06,3.1,3.06-1.4,3.06-3.1-1.34-3.1-3.06-3.1Zm.96,5.43c-.14-.21-.13-.61-.14-.85-.02-.41-.04-.8-.49-.93-.07-.02-.25-.05-.33-.05h-.81v1.83h-.91v-4.58h1.97c.81,0,1.57.3,1.57,1.25,0,.57-.28.97-.85,1.11v.02c.63.18.73.54.76,1.14.01.3,0,.79.15,1.06h-.93Zm-.1-3.48c-.12-.34-.43-.36-.73-.36h-.92v1.27h.88c.5,0,.82-.17.82-.73,0-.04-.02-.14-.04-.18Z"></path></g></svg>